<svg xmlns="http://www.w3.org/2000/svg" width="25" height="25" viewBox="0 0 25 25" fill="none">
    <g clip-path="url(#clip0_2222_2688)">
        <path d="M22.9167 25C23.4722 25 23.9583 24.7917 24.375 24.375C24.7917 23.9583 25 23.4723 25 22.9167V2.08333C25 1.52777 24.7917 1.04167 24.375 0.625C23.9583 0.208333 23.4722 0 22.9167 0H13.2292V2.08333H22.9167V22.9167H2.08333V13.2292H9.53674e-07V22.9167C9.53674e-07 23.4723 0.208335 23.9583 0.625001 24.375C1.04167 24.7917 1.52771 25 2.08333 25H22.9167ZM15.9028 17.3958L17.3611 15.9028L3.54167 2.08333H11.1458V0H9.53674e-07V11.1458H2.08333V3.5764L15.9028 17.3958Z" fill="#1A1B50"/>
    </g>
    <defs>
        <clipPath id="clip0_2222_2688">
            <rect width="25" height="25" fill="white" transform="matrix(-1 0 0 1 25 0)"/>
        </clipPath>
    </defs>
</svg>
